<svg xmlns="http://www.w3.org/2000/svg" viewBox="0 0 512 512">
  <!-- Black background -->
  <rect width="512" height="512" fill="#0a0a0a"/>

  <!-- Film frame top sprocket holes -->
  <rect x="18" y="18" width="18" height="26" rx="3" fill="#1a1a1a" stroke="#2a2a2a" stroke-width="1"/>
  <rect x="48" y="18" width="18" height="26" rx="3" fill="#1a1a1a" stroke="#2a2a2a" stroke-width="1"/>
  <rect x="78" y="18" width="18" height="26" rx="3" fill="#1a1a1a" stroke="#2a2a2a" stroke-width="1"/>
  <rect x="416" y="18" width="18" height="26" rx="3" fill="#1a1a1a" stroke="#2a2a2a" stroke-width="1"/>
  <rect x="446" y="18" width="18" height="26" rx="3" fill="#1a1a1a" stroke="#2a2a2a" stroke-width="1"/>
  <rect x="476" y="18" width="18" height="26" rx="3" fill="#1a1a1a" stroke="#2a2a2a" stroke-width="1"/>

  <!-- Film frame bottom sprocket holes -->
  <rect x="18" y="468" width="18" height="26" rx="3" fill="#1a1a1a" stroke="#2a2a2a" stroke-width="1"/>
  <rect x="48" y="468" width="18" height="26" rx="3" fill="#1a1a1a" stroke="#2a2a2a" stroke-width="1"/>
  <rect x="78" y="468" width="18" height="26" rx="3" fill="#1a1a1a" stroke="#2a2a2a" stroke-width="1"/>
  <rect x="416" y="468" width="18" height="26" rx="3" fill="#1a1a1a" stroke="#2a2a2a" stroke-width="1"/>
  <rect x="446" y="468" width="18" height="26" rx="3" fill="#1a1a1a" stroke="#2a2a2a" stroke-width="1"/>
  <rect x="476" y="468" width="18" height="26" rx="3" fill="#1a1a1a" stroke="#2a2a2a" stroke-width="1"/>

  <!-- Gold thin border lines top / bottom -->
  <line x1="0" y1="56" x2="512" y2="56" stroke="#c9a84c" stroke-width="0.8" opacity="0.5"/>
  <line x1="0" y1="456" x2="512" y2="456" stroke="#c9a84c" stroke-width="0.8" opacity="0.5"/>

  <!-- Letter B — path-based, centered -->
  <path d="
    M 180 120 L 180 390
    L 280 390
    Q 340 390 340 340
    Q 340 290 285 280
    L 285 275
    Q 330 265 330 220
    Q 330 120 270 120
    Z
    M 215 152 L 265 152
    Q 297 152 297 215
    Q 297 260 260 260
    L 215 260
    Z
    M 215 288 L 270 288
    Q 305 288 305 335
    Q 305 360 270 360
    L 215 360
    Z
  " fill="#f5f0e8" fill-rule="evenodd"/>

  <!-- Subtle gold underline -->
  <line x1="176" y1="405" x2="336" y2="405" stroke="#c9a84c" stroke-width="1.5" opacity="0.7"/>
</svg>
